<?xml version="1.0" encoding="utf-8"?>
<!-- Generator: Adobe Illustrator 25.2.1, SVG Export Plug-In . SVG Version: 6.00 Build 0)  -->
<svg version="1.1" id="Layer_1" xmlns="http://www.w3.org/2000/svg" xmlns:xlink="http://www.w3.org/1999/xlink" x="0px" y="0px"
	 viewBox="0 0 410.3 410.7" style="enable-background:new 0 0 410.3 410.7;" xml:space="preserve">
<style type="text/css">
	.st0{stroke:#000000;stroke-miterlimit:10;}
	.st1{fill:none;stroke:#000000;stroke-miterlimit:10;}
</style>
<path class="st0" d="M203,409.7c-1.9-0.1-3.8-0.2-5.7-0.3c-18.7-0.7-37-3.9-54.8-9.7c-29.2-9.5-55-24.8-77.4-45.9
	C48.3,338,34.4,319.6,23.7,299c-9.3-18-15.8-37-19.5-56.9c-2-11.2-3.1-22.5-3.3-33.8c-0.4-23.6,3.2-46.6,10.9-68.9
	c9.6-28.1,24.7-52.9,45.1-74.4C73.7,47.3,92.9,33,114.7,22.2c18.9-9.4,38.9-15.7,59.8-18.9c7.9-1.2,15.8-2,23.7-2.2
	c0.3,0,0.5-0.1,0.8-0.2c4.1,0,8.2,0,12.2,0c0.3,0.1,0.6,0.2,0.9,0.2c14,0.4,27.9,2.3,41.4,5.7c39.1,9.7,72.5,29.3,100.1,58.5
	c21.2,22.5,36.5,48.5,46,77.9c5.6,17.5,8.8,35.5,9.5,53.9c0,0.7,0.1,1.4,0.2,2.1c0,4.1,0,8.2,0,12.2c-0.1,0.2-0.2,0.5-0.2,0.8
	c-0.3,9-1.2,17.9-2.6,26.7c-3.3,20.2-9.6,39.4-18.8,57.6c-10.8,21.5-24.9,40.5-42.3,57c-19.6,18.6-42,32.7-67.1,42.5
	c-21.2,8.2-43.2,12.6-65.9,13.5c-1.8,0.1-3.6,0.2-5.3,0.2C205.8,409.7,204.4,409.7,203,409.7z M205.1,11.1
	c-106.5,0-193,86.1-194.1,192.2C10,311.2,96.9,398.5,203.2,399.5c107.4,1,194.4-85.3,196-191.2C400.8,99.2,312.5,11.1,205.1,11.1z"
	/>
<path class="st1" d="M205.1,11.1c107.4,0,195.7,88.1,194.1,197.2c-1.6,105.9-88.6,192.2-196,191.2C96.9,398.5,10,311.2,11.1,203.3
	C12.1,97.2,98.7,11.1,205.1,11.1z M265.4,205.3c5.8,8.7,11.4,17.3,17.1,25.9c11.3-17.2,22.5-34.3,33.8-51.6c-2.1,0-4,0-5.8,0
	c-0.8,0-1.3,0.3-1.7,0.9c-8.4,12.9-16.8,25.8-25.2,38.6c-0.3,0.4-0.6,0.9-1.1,1.5c-5.7-8.7-11.3-17.2-17-26
	c-5.7,8.8-11.3,17.3-17,26c-0.5-0.7-0.8-1.2-1.1-1.6c-8.4-12.9-16.9-25.8-25.3-38.7c-0.2-0.3-0.5-0.8-0.8-0.8c-2.1-0.1-4.3,0-6.7,0
	c11.4,17.3,22.6,34.3,33.9,51.6C254.1,222.5,259.7,214,265.4,205.3z M182.4,179c-4.9,0-9.5,1.2-13.8,3.6
	c-11.5,6.3-16.7,19.7-12.2,31.5c5.6,14.8,23.1,21.8,37.6,15.1c12.5-5.7,18.5-19,14.5-31.6C205.1,186.7,194.4,179.1,182.4,179z
	 M107.8,196.7c-0.3-0.7-0.5-1.3-0.8-1.8c-8.7-16.9-30.3-20.5-44.1-7.5c-10.4,9.9-10.3,26.8,0.2,36.5c6.9,6.3,15,8.7,24.1,7.1
	c7-1.2,12.9-4.4,17.2-10.2c1.7-2.2,2.6-4.8,3.5-7.5c-2.2,0-4.2,0-6.2,0c-0.7,0-1,0.2-1.4,0.8c-1.5,2-2.8,4.1-4.6,5.8
	c-3.8,3.7-8.2,6.3-13.7,6.2c-11.9-0.1-20.9-10.1-20.8-21c0.2-13.9,14.5-24.1,27.6-19.4c5.1,1.8,8.7,5.3,11.3,9.9c0.2,0.4,0.7,1,1,1
	C103.3,196.8,105.4,196.7,107.8,196.7z M321.5,184.5c0.3,0,0.6,0.1,1,0.1c7.8,0.6,14.8,3.1,20.7,8.4c7.1,6.3,7.8,15.4,1.8,22.6
	c-3.9,4.6-9,7.4-14.7,9c-2.8,0.8-5.8,1.1-8.7,1.7c0,1.6,0,3.3,0,5.1c1.5-0.1,3-0.1,4.4-0.3c7.5-0.9,14.5-3.4,20.4-8.2
	c10.5-8.5,11.9-22.1,3.3-32c-4.5-5.2-10.5-8.2-17-10c-3.6-1-7.2-1.6-11.1-1.5C321.5,181.2,321.5,182.9,321.5,184.5z M151.4,231.1
	c-0.4-0.6-0.6-1-0.8-1.3c-5-7.7-10-15.4-15-23.1c-0.6-0.9-0.8-1.5,0.4-2.1c0.5-0.2,0.9-0.6,1.3-0.9c6.2-4.9,7-13.4,1.8-19
	c-3.1-3.4-7.2-4.8-11.7-5c-5.1-0.2-10.2-0.1-15.2-0.1c-0.4,0-0.8,0-1.2,0.1c0,1.8,0,3.4,0,5.2c0.5,0,0.9,0,1.4,0
	c4.2,0,8.5,0.1,12.7,0c2.2-0.1,4.3,0.4,6.3,1.1c3.2,1.1,4.7,3.5,5.1,6.7c0.4,3.4-1,5.8-4,7.4c-1.1,0.6-2.3,0.9-3.5,1.3
	c-0.9,0.3-1.8,0.6-2.7,0.9c0.2,0.4,0.2,0.5,0.3,0.7c5.9,9.2,11.9,18.4,17.8,27.6c0.2,0.3,0.6,0.5,0.9,0.5
	C147.3,231.1,149.2,231.1,151.4,231.1z"/>
<path class="st0" d="M265.4,205.3c-5.7,8.7-11.3,17.2-17,25.9c-11.3-17.2-22.5-34.3-33.9-51.6c2.4,0,4.5,0,6.7,0
	c0.3,0,0.6,0.4,0.8,0.8c8.4,12.9,16.9,25.8,25.3,38.7c0.3,0.5,0.6,0.9,1.1,1.6c5.7-8.7,11.3-17.3,17-26c5.8,8.8,11.4,17.3,17,26
	c0.5-0.6,0.8-1.1,1.1-1.5c8.4-12.9,16.9-25.7,25.2-38.6c0.5-0.7,0.9-1,1.7-0.9c1.8,0.1,3.7,0,5.8,0C305,197,293.8,214,282.5,231.2
	C276.8,222.6,271.1,214,265.4,205.3z"/>
<path class="st0" d="M182.4,179c12,0.1,22.7,7.7,26.1,18.6c4,12.6-2.1,25.9-14.5,31.6c-14.6,6.7-32-0.3-37.6-15.1
	c-4.4-11.8,0.8-25.2,12.2-31.5C173,180.2,177.6,179,182.4,179z M182.4,226.2c11.6,0,21.2-9.5,21.2-21.1c0-11.7-9.6-21-21.6-21
	c-11.4,0-20.8,9.6-20.8,21.3C161.2,216.8,170.9,226.3,182.4,226.2z"/>
<path class="st0" d="M107.8,196.7c-2.3,0-4.5,0.1-6.6-0.1c-0.3,0-0.8-0.6-1-1c-2.6-4.6-6.3-8.1-11.3-9.9
	c-13.1-4.7-27.4,5.4-27.6,19.4c-0.2,10.9,8.9,20.9,20.8,21c5.5,0.1,9.9-2.5,13.7-6.2c1.7-1.7,3.1-3.8,4.6-5.8
	c0.4-0.5,0.7-0.8,1.4-0.8c2,0,4,0,6.2,0c-0.9,2.7-1.8,5.3-3.5,7.5c-4.3,5.8-10.2,9-17.2,10.2c-9.2,1.6-17.2-0.8-24.1-7.1
	c-10.5-9.7-10.6-26.7-0.2-36.5c13.8-13.1,35.5-9.4,44.1,7.5C107.2,195.4,107.4,196,107.8,196.7z"/>
<path class="st0" d="M321.5,184.5c0-1.7,0-3.3,0-5c3.8-0.1,7.5,0.5,11.1,1.5c6.5,1.8,12.4,4.8,17,10c8.6,9.8,7.2,23.5-3.3,32
	c-5.9,4.8-12.9,7.3-20.4,8.2c-1.4,0.2-2.9,0.2-4.4,0.3c0-1.9,0-3.6,0-5.1c3-0.6,5.9-0.9,8.7-1.7c5.7-1.6,10.8-4.3,14.7-9
	c6-7.3,5.3-16.4-1.8-22.6c-5.9-5.2-12.9-7.8-20.7-8.4C322.1,184.6,321.8,184.6,321.5,184.5z"/>
<path class="st0" d="M151.4,231.1c-2.2,0-4.2,0-6.1,0c-0.3,0-0.8-0.3-0.9-0.5c-5.9-9.2-11.9-18.4-17.8-27.6
	c-0.1-0.1-0.1-0.3-0.3-0.7c0.9-0.3,1.8-0.6,2.6-0.9c1.2-0.4,2.4-0.7,3.5-1.3c3-1.5,4.4-4,4-7.4c-0.4-3.2-1.9-5.6-5.1-6.7
	c-2.1-0.7-4.1-1.2-6.3-1.1c-4.2,0.1-8.5,0-12.7,0c-0.4,0-0.9,0-1.4,0c0-1.8,0-3.4,0-5.2c0.4,0,0.8-0.1,1.2-0.1
	c5.1,0,10.2-0.2,15.2,0.1c4.5,0.2,8.6,1.6,11.7,5c5.2,5.7,4.4,14.1-1.8,19c-0.4,0.3-0.8,0.7-1.3,0.9c-1.1,0.5-1,1.2-0.4,2.1
	c5,7.7,10,15.4,15,23.1C150.8,230.2,151.1,230.5,151.4,231.1z"/>
<path class="st1" d="M182.4,226.2c-11.5,0-21.2-9.5-21.2-20.8c0-11.7,9.4-21.3,20.8-21.3c12,0,21.6,9.3,21.6,21
	C203.6,216.7,194,226.2,182.4,226.2z"/>
</svg>
