<?xml version="1.0" encoding="utf-8"?>
<!-- Generator: Adobe Illustrator 25.2.1, SVG Export Plug-In . SVG Version: 6.00 Build 0)  -->
<svg version="1.1" id="Layer_1" xmlns="http://www.w3.org/2000/svg" xmlns:xlink="http://www.w3.org/1999/xlink" x="0px" y="0px"
	 viewBox="0 0 410.32 410.72" style="enable-background:new 0 0 410.32 410.72;" xml:space="preserve">
<style type="text/css">
	.st0{stroke:#000000;stroke-miterlimit:10;}
	.st1{fill:none;stroke:#000000;stroke-miterlimit:10;}
</style>
<path class="st0" d="M203.04,409.72c-1.9-0.09-3.8-0.2-5.69-0.27c-18.7-0.73-36.98-3.89-54.78-9.67c-29.22-9.48-55-24.8-77.37-45.85
	c-16.94-15.94-30.76-34.28-41.47-54.94c-9.33-17.99-15.8-36.97-19.45-56.9c-2.04-11.18-3.1-22.47-3.27-33.84
	c-0.35-23.6,3.23-46.57,10.88-68.89c9.62-28.08,24.69-52.88,45.09-74.45c16.7-17.65,35.94-31.89,57.68-42.7
	c18.94-9.41,38.88-15.71,59.8-18.85c7.87-1.18,15.77-1.95,23.73-2.17c0.26-0.01,0.51-0.13,0.76-0.19c4.08,0,8.16,0,12.23,0
	c0.3,0.07,0.6,0.18,0.9,0.19c14.02,0.42,27.85,2.29,41.45,5.67c39.08,9.73,72.48,29.27,100.14,58.54
	c21.22,22.45,36.5,48.45,45.95,77.87c5.62,17.52,8.76,35.49,9.45,53.88c0.03,0.7,0.15,1.39,0.23,2.09c0,4.08,0,8.16,0,12.24
	c-0.07,0.25-0.18,0.51-0.19,0.76c-0.26,8.96-1.18,17.86-2.64,26.7c-3.34,20.16-9.59,39.38-18.75,57.64
	c-10.77,21.46-24.88,40.46-42.31,56.97c-19.58,18.56-41.95,32.73-67.1,42.45c-21.19,8.2-43.17,12.61-65.87,13.46
	c-1.78,0.07-3.56,0.17-5.34,0.25C205.76,409.72,204.4,409.72,203.04,409.72z M205.13,11.12C98.68,11.14,12.11,97.25,11.05,203.28
	C9.98,311.21,96.92,398.52,203.19,399.51c107.41,1,194.44-85.31,196-191.18C400.8,99.21,312.51,11.09,205.13,11.12z"/>
<path class="st1" d="M205.13,11.12c107.38-0.03,195.67,88.09,194.06,197.21c-1.56,105.87-88.59,192.18-196,191.18
	C96.92,398.52,9.98,311.21,11.05,203.28C12.11,97.25,98.68,11.14,205.13,11.12z M265.39,205.3c5.75,8.72,11.39,17.28,17.1,25.94
	c11.3-17.21,22.49-34.28,33.83-51.56c-2.15,0-3.98,0.04-5.81-0.02c-0.82-0.03-1.28,0.26-1.73,0.95
	c-8.4,12.88-16.83,25.75-25.25,38.62c-0.3,0.45-0.63,0.88-1.08,1.52c-5.71-8.7-11.3-17.22-17.05-25.99
	c-5.71,8.75-11.29,17.3-16.98,26.04c-0.47-0.7-0.78-1.16-1.08-1.62c-8.44-12.9-16.89-25.81-25.34-38.7
	c-0.2-0.31-0.54-0.75-0.82-0.76c-2.14-0.06-4.28-0.04-6.66-0.04c11.36,17.29,22.58,34.35,33.88,51.55
	C254.09,222.53,259.67,214.02,265.39,205.3z M182.45,178.97c-4.9-0.01-9.48,1.19-13.76,3.55c-11.49,6.33-16.69,19.74-12.24,31.54
	c5.57,14.76,23.05,21.76,37.6,15.06c12.46-5.74,18.54-18.96,14.53-31.59C205.14,186.66,194.45,179.07,182.45,178.97z M107.76,196.71
	c-0.32-0.74-0.53-1.29-0.79-1.8c-8.69-16.88-30.35-20.54-44.14-7.47c-10.39,9.85-10.29,26.84,0.22,36.52
	c6.87,6.33,14.97,8.69,24.11,7.13c6.98-1.19,12.86-4.45,17.18-10.22c1.66-2.22,2.57-4.79,3.5-7.48c-2.17,0-4.16,0.03-6.16-0.02
	c-0.68-0.01-1.02,0.24-1.42,0.79c-1.46,1.99-2.84,4.09-4.58,5.82c-3.76,3.74-8.21,6.28-13.7,6.23
	c-11.91-0.11-20.94-10.14-20.78-21.03c0.2-13.95,14.49-24.1,27.62-19.39c5.05,1.81,8.67,5.27,11.31,9.86c0.23,0.41,0.65,0.99,1,1.01
	C103.27,196.76,105.42,196.71,107.76,196.71z M321.49,184.53c0.34,0.04,0.65,0.08,0.96,0.11c7.8,0.55,14.78,3.14,20.69,8.38
	c7.09,6.28,7.82,15.36,1.77,22.65c-3.86,4.65-8.96,7.41-14.68,8.99c-2.82,0.78-5.76,1.12-8.72,1.67c0,1.55,0,3.28,0,5.14
	c1.53-0.11,2.96-0.15,4.39-0.31c7.54-0.86,14.45-3.36,20.39-8.16c10.5-8.49,11.89-22.13,3.26-31.96
	c-4.55-5.18-10.46-8.16-16.99-10.01c-3.58-1.01-7.24-1.57-11.06-1.48C321.49,181.24,321.49,182.86,321.49,184.53z M151.42,231.12
	c-0.36-0.59-0.58-0.96-0.82-1.32c-5-7.71-9.98-15.43-15-23.12c-0.59-0.9-0.76-1.54,0.38-2.08c0.46-0.22,0.86-0.58,1.26-0.91
	c6.16-4.94,7-13.35,1.77-19.04c-3.11-3.38-7.25-4.81-11.71-5c-5.07-0.21-10.15-0.05-15.23-0.05c-0.38,0-0.76,0.04-1.19,0.07
	c0,1.77,0,3.43,0,5.21c0.5,0,0.93,0,1.36,0c4.24,0,8.48,0.08,12.71-0.03c2.21-0.06,4.26,0.42,6.3,1.14
	c3.21,1.13,4.74,3.51,5.09,6.74c0.37,3.36-1.04,5.84-4.01,7.38c-1.08,0.56-2.3,0.88-3.46,1.29c-0.87,0.31-1.75,0.61-2.65,0.92
	c0.17,0.37,0.21,0.52,0.3,0.66c5.93,9.2,11.86,18.4,17.81,27.58c0.18,0.28,0.63,0.52,0.95,0.53
	C147.26,231.14,149.22,231.12,151.42,231.12z"/>
<path class="st0" d="M265.39,205.3c-5.71,8.72-11.29,17.23-17,25.94c-11.3-17.2-22.52-34.26-33.88-51.55c2.38,0,4.52-0.03,6.66,0.04
	c0.28,0.01,0.61,0.45,0.82,0.76c8.45,12.9,16.9,25.8,25.34,38.7c0.3,0.46,0.61,0.91,1.08,1.62c5.7-8.73,11.28-17.29,16.98-26.04
	c5.75,8.76,11.35,17.29,17.05,25.99c0.46-0.64,0.79-1.07,1.08-1.52c8.42-12.87,16.85-25.73,25.25-38.62
	c0.45-0.69,0.91-0.98,1.73-0.95c1.83,0.06,3.66,0.02,5.81,0.02c-11.34,17.28-22.54,34.34-33.83,51.56
	C276.78,222.58,271.14,214.02,265.39,205.3z"/>
<path class="st0" d="M182.45,178.97c12.01,0.1,22.69,7.69,26.14,18.56c4.01,12.63-2.07,25.85-14.53,31.59
	c-14.55,6.7-32.03-0.3-37.6-15.06c-4.45-11.8,0.75-25.2,12.24-31.54C172.97,180.16,177.55,178.96,182.45,178.97z M182.39,226.24
	c11.65-0.02,21.17-9.51,21.17-21.09c0.01-11.7-9.58-21.04-21.57-21.03c-11.43,0.02-20.83,9.65-20.8,21.3
	C161.22,216.77,170.88,226.26,182.39,226.24z"/>
<path class="st0" d="M107.76,196.71c-2.35,0-4.49,0.05-6.63-0.05c-0.35-0.02-0.77-0.6-1-1.01c-2.64-4.6-6.26-8.05-11.31-9.86
	c-13.13-4.71-27.42,5.45-27.62,19.39c-0.16,10.9,8.87,20.92,20.78,21.03c5.49,0.05,9.94-2.49,13.7-6.23
	c1.74-1.73,3.12-3.83,4.58-5.82c0.4-0.54,0.74-0.8,1.42-0.79c2,0.04,3.99,0.02,6.16,0.02c-0.93,2.69-1.83,5.26-3.5,7.48
	c-4.32,5.77-10.19,9.03-17.18,10.22c-9.15,1.55-17.24-0.8-24.11-7.13c-10.51-9.68-10.61-26.67-0.22-36.52
	c13.79-13.08,35.45-9.41,44.14,7.47C107.24,195.43,107.44,195.97,107.76,196.71z"/>
<path class="st0" d="M321.49,184.53c0-1.67,0-3.29,0-4.99c3.82-0.09,7.48,0.46,11.06,1.48c6.53,1.84,12.44,4.83,16.99,10.01
	c8.64,9.83,7.24,23.47-3.26,31.96c-5.94,4.8-12.85,7.3-20.39,8.16c-1.42,0.16-2.86,0.21-4.39,0.31c0-1.86,0-3.58,0-5.14
	c2.96-0.55,5.9-0.89,8.72-1.67c5.72-1.58,10.82-4.34,14.68-8.99c6.05-7.29,5.31-16.37-1.77-22.65c-5.9-5.24-12.88-7.83-20.69-8.38
	C322.14,184.62,321.83,184.57,321.49,184.53z"/>
<path class="st0" d="M151.42,231.12c-2.2,0-4.16,0.02-6.11-0.02c-0.33-0.01-0.77-0.26-0.95-0.53c-5.95-9.18-11.88-18.38-17.81-27.58
	c-0.09-0.13-0.13-0.29-0.3-0.66c0.9-0.31,1.77-0.61,2.65-0.92c1.16-0.42,2.38-0.73,3.46-1.29c2.96-1.54,4.37-4.02,4.01-7.38
	c-0.35-3.24-1.88-5.62-5.09-6.74c-2.05-0.72-4.09-1.2-6.3-1.14c-4.23,0.11-8.47,0.03-12.71,0.03c-0.43,0-0.86,0-1.36,0
	c0-1.78,0-3.44,0-5.21c0.42-0.03,0.8-0.07,1.19-0.07c5.08,0,10.16-0.16,15.23,0.05c4.46,0.18,8.6,1.62,11.71,5
	c5.23,5.69,4.39,14.1-1.77,19.04c-0.4,0.32-0.8,0.69-1.26,0.91c-1.14,0.54-0.97,1.18-0.38,2.08c5.02,7.69,10.01,15.41,15,23.12
	C150.84,230.16,151.06,230.53,151.42,231.12z"/>
<path class="st1" d="M182.39,226.24c-11.51,0.02-21.18-9.46-21.2-20.81c-0.03-11.66,9.38-21.28,20.8-21.3
	c11.99-0.02,21.58,9.32,21.57,21.03C203.56,216.73,194.04,226.21,182.39,226.24z"/>
</svg>
