<svg width="411" height="411" viewBox="0 0 411 411" fill="none" xmlns="http://www.w3.org/2000/svg">
<g clip-path="url(#clip0)">
<path d="M203.04 409.72C201.14 409.63 199.24 409.52 197.35 409.45C178.65 408.72 160.37 405.56 142.57 399.78C113.35 390.3 87.57 374.98 65.2 353.93C48.26 337.99 34.44 319.65 23.73 298.99C14.4 281 7.93 262.02 4.28 242.09C2.24 230.91 1.18 219.62 1.01 208.25C0.659999 184.65 4.24 161.68 11.89 139.36C21.51 111.28 36.58 86.48 56.98 64.91C73.68 47.26 92.92 33.02 114.66 22.21C133.6 12.8 153.54 6.5 174.46 3.36C182.33 2.18 190.23 1.41 198.19 1.19C198.45 1.18 198.7 1.06 198.95 1C203.03 1 207.11 1 211.18 1C211.48 1.07 211.78 1.18 212.08 1.19C226.1 1.61 239.93 3.48 253.53 6.86C292.61 16.59 326.01 36.13 353.67 65.4C374.89 87.85 390.17 113.85 399.62 143.27C405.24 160.79 408.38 178.76 409.07 197.15C409.1 197.85 409.22 198.54 409.3 199.24C409.3 203.32 409.3 207.4 409.3 211.48C409.23 211.73 409.12 211.99 409.11 212.24C408.85 221.2 407.93 230.1 406.47 238.94C403.13 259.1 396.88 278.32 387.72 296.58C376.95 318.04 362.84 337.04 345.41 353.55C325.83 372.11 303.46 386.28 278.31 396C257.12 404.2 235.14 408.61 212.44 409.46C210.66 409.53 208.88 409.63 207.1 409.71C205.76 409.72 204.4 409.72 203.04 409.72ZM205.13 11.12C98.68 11.14 12.11 97.25 11.05 203.28C9.98 311.21 96.92 398.52 203.19 399.51C310.6 400.51 397.63 314.2 399.19 208.33C400.8 99.21 312.51 11.09 205.13 11.12Z" fill="white" stroke="white" stroke-miterlimit="10"/>
<path d="M205.13 11.12C312.51 11.09 400.8 99.21 399.19 208.33C397.63 314.2 310.6 400.51 203.19 399.51C96.92 398.52 9.97999 311.21 11.05 203.28C12.11 97.25 98.68 11.14 205.13 11.12ZM265.39 205.3C271.14 214.02 276.78 222.58 282.49 231.24C293.79 214.03 304.98 196.96 316.32 179.68C314.17 179.68 312.34 179.72 310.51 179.66C309.69 179.63 309.23 179.92 308.78 180.61C300.38 193.49 291.95 206.36 283.53 219.23C283.23 219.68 282.9 220.11 282.45 220.75C276.74 212.05 271.15 203.53 265.4 194.76C259.69 203.51 254.11 212.06 248.42 220.8C247.95 220.1 247.64 219.64 247.34 219.18C238.9 206.28 230.45 193.37 222 180.48C221.8 180.17 221.46 179.73 221.18 179.72C219.04 179.66 216.9 179.68 214.52 179.68C225.88 196.97 237.1 214.03 248.4 231.23C254.09 222.53 259.67 214.02 265.39 205.3ZM182.45 178.97C177.55 178.96 172.97 180.16 168.69 182.52C157.2 188.85 152 202.26 156.45 214.06C162.02 228.82 179.5 235.82 194.05 229.12C206.51 223.38 212.59 210.16 208.58 197.53C205.14 186.66 194.45 179.07 182.45 178.97ZM107.76 196.71C107.44 195.97 107.23 195.42 106.97 194.91C98.28 178.03 76.62 174.37 62.83 187.44C52.44 197.29 52.54 214.28 63.05 223.96C69.92 230.29 78.02 232.65 87.16 231.09C94.14 229.9 100.02 226.64 104.34 220.87C106 218.65 106.91 216.08 107.84 213.39C105.67 213.39 103.68 213.42 101.68 213.37C101 213.36 100.66 213.61 100.26 214.16C98.8 216.15 97.42 218.25 95.68 219.98C91.92 223.72 87.47 226.26 81.98 226.21C70.07 226.1 61.04 216.07 61.2 205.18C61.4 191.23 75.69 181.08 88.82 185.79C93.87 187.6 97.49 191.06 100.13 195.65C100.36 196.06 100.78 196.64 101.13 196.66C103.27 196.76 105.42 196.71 107.76 196.71ZM321.49 184.53C321.83 184.57 322.14 184.61 322.45 184.64C330.25 185.19 337.23 187.78 343.14 193.02C350.23 199.3 350.96 208.38 344.91 215.67C341.05 220.32 335.95 223.08 330.23 224.66C327.41 225.44 324.47 225.78 321.51 226.33C321.51 227.88 321.51 229.61 321.51 231.47C323.04 231.36 324.47 231.32 325.9 231.16C333.44 230.3 340.35 227.8 346.29 223C356.79 214.51 358.18 200.87 349.55 191.04C345 185.86 339.09 182.88 332.56 181.03C328.98 180.02 325.32 179.46 321.5 179.55C321.49 181.24 321.49 182.86 321.49 184.53ZM151.42 231.12C151.06 230.53 150.84 230.16 150.6 229.8C145.6 222.09 140.62 214.37 135.6 206.68C135.01 205.78 134.84 205.14 135.98 204.6C136.44 204.38 136.84 204.02 137.24 203.69C143.4 198.75 144.24 190.34 139.01 184.65C135.9 181.27 131.76 179.84 127.3 179.65C122.23 179.44 117.15 179.6 112.07 179.6C111.69 179.6 111.31 179.64 110.88 179.67C110.88 181.44 110.88 183.1 110.88 184.88C111.38 184.88 111.81 184.88 112.24 184.88C116.48 184.88 120.72 184.96 124.95 184.85C127.16 184.79 129.21 185.27 131.25 185.99C134.46 187.12 135.99 189.5 136.34 192.73C136.71 196.09 135.3 198.57 132.33 200.11C131.25 200.67 130.03 200.99 128.87 201.4C128 201.71 127.12 202.01 126.22 202.32C126.39 202.69 126.43 202.84 126.52 202.98C132.45 212.18 138.38 221.38 144.33 230.56C144.51 230.84 144.96 231.08 145.28 231.09C147.26 231.14 149.22 231.12 151.42 231.12Z" stroke="white" stroke-miterlimit="10"/>
<path d="M265.39 205.3C259.68 214.02 254.1 222.53 248.39 231.24C237.09 214.04 225.87 196.98 214.51 179.69C216.89 179.69 219.03 179.66 221.17 179.73C221.45 179.74 221.78 180.18 221.99 180.49C230.44 193.39 238.89 206.29 247.33 219.19C247.63 219.65 247.94 220.1 248.41 220.81C254.11 212.08 259.69 203.52 265.39 194.77C271.14 203.53 276.74 212.06 282.44 220.76C282.9 220.12 283.23 219.69 283.52 219.24C291.94 206.37 300.37 193.51 308.77 180.62C309.22 179.93 309.68 179.64 310.5 179.67C312.33 179.73 314.16 179.69 316.31 179.69C304.97 196.97 293.77 214.03 282.48 231.25C276.78 222.58 271.14 214.02 265.39 205.3Z" fill="white" stroke="white" stroke-miterlimit="10"/>
<path d="M182.45 178.97C194.46 179.07 205.14 186.66 208.59 197.53C212.6 210.16 206.52 223.38 194.06 229.12C179.51 235.82 162.03 228.82 156.46 214.06C152.01 202.26 157.21 188.86 168.7 182.52C172.97 180.16 177.55 178.96 182.45 178.97ZM182.39 226.24C194.04 226.22 203.56 216.73 203.56 205.15C203.57 193.45 193.98 184.11 181.99 184.12C170.56 184.14 161.16 193.77 161.19 205.42C161.22 216.77 170.88 226.26 182.39 226.24Z" fill="white" stroke="white" stroke-miterlimit="10"/>
<path d="M107.76 196.71C105.41 196.71 103.27 196.76 101.13 196.66C100.78 196.64 100.36 196.06 100.13 195.65C97.49 191.05 93.87 187.6 88.82 185.79C75.69 181.08 61.4 191.24 61.2 205.18C61.04 216.08 70.07 226.1 81.98 226.21C87.47 226.26 91.92 223.72 95.68 219.98C97.42 218.25 98.8 216.15 100.26 214.16C100.66 213.62 101 213.36 101.68 213.37C103.68 213.41 105.67 213.39 107.84 213.39C106.91 216.08 106.01 218.65 104.34 220.87C100.02 226.64 94.15 229.9 87.16 231.09C78.01 232.64 69.92 230.29 63.05 223.96C52.54 214.28 52.44 197.29 62.83 187.44C76.62 174.36 98.28 178.03 106.97 194.91C107.24 195.43 107.44 195.97 107.76 196.71Z" fill="white" stroke="white" stroke-miterlimit="10"/>
<path d="M321.49 184.53C321.49 182.86 321.49 181.24 321.49 179.54C325.31 179.45 328.97 180 332.55 181.02C339.08 182.86 344.99 185.85 349.54 191.03C358.18 200.86 356.78 214.5 346.28 222.99C340.34 227.79 333.43 230.29 325.89 231.15C324.47 231.31 323.03 231.36 321.5 231.46C321.5 229.6 321.5 227.88 321.5 226.32C324.46 225.77 327.4 225.43 330.22 224.65C335.94 223.07 341.04 220.31 344.9 215.66C350.95 208.37 350.21 199.29 343.13 193.01C337.23 187.77 330.25 185.18 322.44 184.63C322.14 184.62 321.83 184.57 321.49 184.53Z" fill="white" stroke="white" stroke-miterlimit="10"/>
<path d="M151.42 231.12C149.22 231.12 147.26 231.14 145.31 231.1C144.98 231.09 144.54 230.84 144.36 230.57C138.41 221.39 132.48 212.19 126.55 202.99C126.46 202.86 126.42 202.7 126.25 202.33C127.15 202.02 128.02 201.72 128.9 201.41C130.06 200.99 131.28 200.68 132.36 200.12C135.32 198.58 136.73 196.1 136.37 192.74C136.02 189.5 134.49 187.12 131.28 186C129.23 185.28 127.19 184.8 124.98 184.86C120.75 184.97 116.51 184.89 112.27 184.89C111.84 184.89 111.41 184.89 110.91 184.89C110.91 183.11 110.91 181.45 110.91 179.68C111.33 179.65 111.71 179.61 112.1 179.61C117.18 179.61 122.26 179.45 127.33 179.66C131.79 179.84 135.93 181.28 139.04 184.66C144.27 190.35 143.43 198.76 137.27 203.7C136.87 204.02 136.47 204.39 136.01 204.61C134.87 205.15 135.04 205.79 135.63 206.69C140.65 214.38 145.64 222.1 150.63 229.81C150.84 230.16 151.06 230.53 151.42 231.12Z" fill="white" stroke="white" stroke-miterlimit="10"/>
<path d="M182.39 226.24C170.88 226.26 161.21 216.78 161.19 205.43C161.16 193.77 170.57 184.15 181.99 184.13C193.98 184.11 203.57 193.45 203.56 205.16C203.56 216.73 194.04 226.21 182.39 226.24Z" stroke="white" stroke-miterlimit="10"/>
</g>
<defs>
<clipPath id="clip0">
<rect width="410.32" height="410.72" fill="white"/>
</clipPath>
</defs>
</svg>
